<?xml version="1.0" standalone="no"?>
<!DOCTYPE svg PUBLIC "-//W3C//DTD SVG 20010904//EN"
 "http://www.w3.org/TR/2001/REC-SVG-20010904/DTD/svg10.dtd">
<svg version="1.0" xmlns="http://www.w3.org/2000/svg"
 width="260.000000pt" height="260.000000pt" viewBox="0 0 260.000000 260.000000"
 preserveAspectRatio="xMidYMid meet">
<metadata>
Created by potrace 1.14, written by Peter Selinger 2001-2017
</metadata>
<g transform="translate(0.000000,260.000000) scale(0.100000,-0.100000)"
fill="#000000" stroke="none">
<path d="M1155 2534 c-204 -29 -407 -103 -555 -204 -115 -79 -257 -222 -338
-342 -81 -119 -155 -299 -189 -463 -24 -113 -24 -404 -1 -496 56 -223 121
-368 233 -516 l46 -62 43 22 43 21 -57 76 c-231 313 -297 721 -175 1086 58
174 149 319 285 455 154 154 317 247 528 300 543 137 1102 -115 1341 -605 164
-337 162 -726 -6 -1061 -51 -102 -97 -170 -161 -237 l-45 -46 47 -22 c26 -11
51 -18 56 -15 18 11 100 123 149 204 27 44 72 139 100 211 62 158 76 261 68
475 -9 222 -37 345 -120 525 -51 112 -137 231 -242 336 -160 161 -343 266
-570 325 -107 28 -138 31 -285 34 -91 2 -178 1 -195 -1z"/>
<path d="M1556 2362 c-3 -3 -6 -14 -6 -24 0 -11 -11 -23 -26 -28 -22 -9 -25
-15 -20 -36 6 -24 5 -26 -17 -20 -19 4 -26 1 -30 -15 -6 -22 -44 -23 -40 -2 3
15 -44 29 -92 27 -37 -1 -40 -3 -40 -29 0 -16 -6 -30 -14 -33 -9 -3 -12 0 -9
10 8 20 -23 19 -40 -1 -10 -13 -12 -5 -10 49 l3 65 -35 -3 c-70 -5 -120 -18
-120 -31 0 -11 -40 -7 -48 5 -10 14 -88 17 -111 4 -25 -13 -28 -32 -4 -23 12
5 7 -6 -14 -31 -17 -21 -29 -45 -26 -52 6 -17 -9 -18 -26 -1 -11 10 -12 9 -6
-2 5 -9 3 -12 -6 -9 -7 2 -13 19 -13 38 -1 18 -6 35 -13 37 -17 6 -26 -33 -13
-57 13 -25 4 -61 -14 -54 -7 3 -19 20 -26 39 -8 19 -16 35 -18 35 -9 0 -42
-43 -42 -54 0 -6 7 -24 15 -40 19 -35 20 -60 3 -49 -14 8 -50 5 -58 -6 -3 -4
-16 -15 -30 -24 -13 -9 -19 -17 -13 -17 7 0 10 -7 7 -15 -9 -22 -24 -18 -24 5
0 17 -4 19 -28 14 -45 -12 -88 -32 -102 -48 -8 -11 -9 -16 -1 -16 19 0 12 -39
-9 -50 -25 -14 -16 -36 21 -49 36 -12 47 -38 25 -54 -14 -11 -14 -15 9 -42 23
-28 26 -29 39 -12 13 17 15 16 35 -8 11 -15 25 -24 31 -20 14 8 70 -4 70 -15
0 -5 -11 -21 -24 -37 -22 -25 -26 -26 -49 -14 -36 19 -91 -3 -57 -24 13 -8 13
-65 0 -65 -6 0 -15 11 -19 24 -11 27 -77 70 -97 62 -8 -3 -14 -12 -14 -19 0
-8 -6 -20 -14 -27 -8 -6 -16 -26 -18 -43 -3 -32 -3 -32 -55 -29 -52 3 -53 2
-68 -35 -15 -34 -15 -41 -2 -68 8 -16 15 -48 15 -69 0 -65 54 -91 75 -36 12
33 21 36 41 18 12 -11 11 -18 -1 -41 -13 -26 -12 -30 15 -61 23 -27 33 -31 51
-24 13 4 30 4 41 -2 28 -15 33 -12 26 15 -6 23 0 39 31 94 2 2 9 -2 18 -9 8
-7 33 -11 60 -8 41 3 45 1 45 -19 0 -12 -4 -25 -10 -28 -16 -10 -12 -21 15
-35 23 -12 28 -11 55 15 35 34 70 39 88 13 7 -10 24 -18 38 -18 13 0 42 -6 64
-12 63 -20 48 -48 -26 -48 -19 0 -34 -4 -34 -10 0 -14 39 -12 96 5 111 33 158
9 173 -89 7 -51 6 -67 -11 -105 -10 -25 -22 -75 -24 -111 -3 -36 -13 -98 -21
-138 l-15 -73 24 -27 c14 -15 38 -49 53 -77 26 -46 152 -205 162 -205 3 0 30
23 61 51 32 27 101 78 154 112 93 59 113 77 85 77 -53 0 -138 120 -151 215 -4
28 -17 78 -29 113 l-22 62 35 68 c42 81 64 92 143 73 28 -7 66 -12 82 -12 85
3 111 0 120 -13 13 -17 64 -10 72 10 3 8 11 14 19 14 8 0 23 5 34 10 11 6 29
15 40 20 18 9 47 7 89 -6 11 -3 11 -7 1 -19 -8 -10 -9 -15 -1 -15 6 0 20 18
31 39 11 22 24 42 30 46 17 10 11 25 -10 25 -11 0 -20 6 -20 14 0 8 -10 22
-22 30 l-22 16 29 0 c21 0 43 -12 71 -38 39 -35 43 -37 61 -22 10 8 27 38 37
65 11 28 29 63 40 79 15 21 18 30 9 33 -7 3 -13 12 -13 22 0 9 -5 22 -11 28
-17 17 -3 30 28 26 23 -4 30 1 41 26 7 16 15 42 18 57 4 22 2 25 -13 19 -39
-17 -58 -11 -61 18 -2 15 -7 25 -11 23 -11 -7 -91 70 -91 88 0 13 -37 34 -44
24 -1 -1 -7 -14 -13 -28 -10 -22 -11 -17 -11 35 -1 51 -2 74 -11 134 -2 19
-33 20 -53 1 -12 -11 -27 -20 -34 -20 -18 0 -27 17 -12 22 7 3 9 12 5 22 -4
11 -11 14 -19 9 -37 -23 -98 1 -98 39 0 26 19 22 30 -7 6 -15 17 -25 30 -25
23 0 23 0 10 34 -8 21 -6 27 10 36 23 13 26 48 6 76 -13 17 -16 18 -28 3 -24
-30 -46 -31 -50 -1 -2 20 -8 26 -23 24 -18 -2 -17 0 5 19 l25 21 -45 -4 c-38
-2 -45 0 -48 17 -3 11 -9 23 -16 28 -8 5 -5 12 7 21 13 10 17 21 12 35 -3 12
-7 34 -7 49 -1 23 -8 32 -38 45 -20 8 -54 19 -76 23 -34 6 -37 5 -27 -8 14
-16 8 -28 -15 -28 -9 0 -24 -7 -34 -17 -16 -14 -18 -14 -18 -1 0 9 7 18 15 22
22 8 18 43 -4 49 -11 3 -22 2 -25 -1z m-577 -78 c2 -2 -7 -4 -22 -4 -14 0 -29
5 -32 10 -6 10 42 4 54 -6z m525 -140 c21 -8 20 -38 0 -55 -14 -11 -19 -10
-36 11 -19 23 -19 25 -2 37 21 15 18 15 38 7z m-434 -154 c0 -41 -13 -53 -25
-23 -3 10 -1 19 4 21 6 2 9 8 5 13 -5 9 3 29 12 29 2 0 4 -18 4 -40z m96 -36
c-8 -20 7 -17 27 6 9 11 21 20 25 20 5 0 -8 -19 -30 -42 -21 -23 -38 -51 -38
-62 -1 -35 -38 -106 -55 -106 -9 0 -15 5 -13 12 3 7 -2 20 -10 29 -13 15 -16
15 -33 1 -23 -20 -24 -32 -4 -32 25 0 29 -29 9 -52 -12 -13 -13 -18 -4 -13 36
22 47 13 54 -39 3 -28 13 -73 22 -99 9 -27 14 -50 11 -53 -2 -3 -16 1 -31 7
-30 14 -44 52 -26 74 10 12 7 15 -14 21 -21 5 -25 11 -20 26 4 15 -1 22 -25
30 -26 11 -29 16 -25 42 3 17 9 43 14 58 7 21 5 27 -11 31 -10 3 -19 11 -19
17 0 10 4 10 15 0 19 -16 34 -5 17 12 -13 13 -17 68 -4 68 10 0 39 -20 29 -20
-5 0 -5 -5 -1 -11 4 -8 9 -7 15 2 7 11 9 10 9 -3 0 -9 11 -30 24 -45 31 -35
46 -23 53 41 3 25 10 46 14 46 5 0 9 14 9 31 0 19 4 28 11 24 6 -4 8 -13 5
-21z m-77 -30 c3 -3 0 -9 -7 -16 -8 -8 -15 -7 -26 5 -9 9 -16 18 -16 22 0 6
40 -3 49 -11z m-119 -70 c0 -2 -7 -4 -15 -4 -8 0 -15 4 -15 10 0 5 7 7 15 4 8
-4 15 -8 15 -10z m555 -24 c-13 -21 19 -20 41 1 13 12 26 20 29 17 3 -2 -4
-13 -14 -22 -11 -10 -17 -24 -15 -31 6 -14 -52 -51 -59 -37 -2 4 -5 26 -6 49
-1 35 1 42 14 37 8 -3 13 -10 10 -14z m-1002 -43 c-19 -11 -30 0 -16 14 6 6 9
19 7 28 -3 9 1 5 10 -9 13 -22 13 -26 -1 -33z m807 24 c0 -11 3 -26 6 -34 3
-10 -2 -18 -15 -22 -12 -3 -21 -15 -21 -25 0 -28 -17 -34 -30 -10 -13 25 -3
63 15 56 8 -3 15 6 19 25 6 32 26 40 26 10z m-370 -16 c0 -8 -6 -15 -14 -15
-17 0 -28 14 -19 24 12 12 33 6 33 -9z m-175 -55 c-5 -14 -2 -20 9 -20 9 0 16
5 16 11 0 23 20 -4 30 -41 11 -42 30 -54 30 -21 0 24 18 37 32 23 8 -8 6 -19
-6 -37 -22 -34 -46 -42 -61 -22 -14 19 -42 22 -79 7 -24 -9 -25 -8 -20 19 4
16 1 32 -5 35 -20 13 -11 33 22 50 40 20 40 20 32 -4z m815 -14 c0 -8 -8 -17
-18 -20 -13 -4 -18 -17 -19 -51 -1 -52 0 -50 -30 -59 -20 -6 -23 -4 -23 18 0
14 4 26 9 26 10 0 24 34 25 57 1 12 35 42 49 43 4 0 7 -6 7 -14z m363 -3 c4
-3 0 -17 -8 -30 -9 -13 -13 -27 -11 -32 8 -13 -13 -26 -74 -45 -30 -10 -65
-26 -78 -37 -14 -10 -31 -19 -38 -19 -7 0 -29 -14 -47 -30 -19 -17 -48 -33
-65 -36 -18 -4 -45 -24 -71 -54 -38 -44 -92 -80 -120 -80 -24 0 -10 52 22 81
35 32 104 69 129 69 9 0 21 7 29 16 18 22 64 44 91 44 20 0 58 30 58 45 0 3
-11 10 -25 15 -31 12 -35 50 -5 50 11 0 20 4 20 8 0 11 60 29 82 24 14 -3 15
-7 6 -27 -14 -30 -39 -41 -50 -20 -5 8 -13 15 -17 15 -13 0 -20 -36 -10 -51 5
-8 9 -10 9 -6 0 4 8 4 17 -1 12 -7 29 -4 60 11 47 23 56 44 21 49 -21 3 -20 5
12 26 36 23 52 27 63 15z m-958 -53 c3 -5 1 -10 -4 -10 -6 0 -11 5 -11 10 0 6
2 10 4 10 3 0 8 -4 11 -10z m303 -3 c19 -22 1 -72 -29 -80 -23 -6 -25 -34 -4
-64 9 -13 18 -57 22 -113 6 -84 5 -90 -12 -84 -16 6 -65 100 -65 125 0 6 9 8
19 4 27 -8 36 12 15 32 -25 25 -46 82 -38 105 4 14 9 17 17 9 22 -22 40 -13
34 19 -4 17 -2 30 3 30 6 0 10 7 10 15 0 18 14 19 28 2z m-328 -32 c5 -14 13
-25 18 -25 5 0 7 -12 4 -26 -4 -20 2 -32 24 -50 16 -13 34 -23 40 -24 5 0 25
-16 44 -35 l34 -35 -26 0 c-17 0 -50 20 -95 56 -64 53 -68 58 -66 94 1 26 -3
40 -13 44 -9 3 -12 10 -9 16 11 18 35 10 45 -15z m740 6 c0 -5 -7 -11 -15 -15
-15 -5 -20 5 -8 17 9 10 23 9 23 -2z m-220 -10 c0 -6 -4 -13 -10 -16 -5 -3
-10 -21 -10 -38 0 -18 -8 -41 -16 -52 -15 -20 -16 -20 -12 4 2 13 -3 26 -9 28
-8 3 -13 -5 -13 -20 0 -13 -7 -30 -15 -37 -8 -7 -15 -18 -15 -26 0 -16 -40
-45 -52 -38 -4 3 -8 18 -8 33 0 31 23 57 40 46 5 -3 10 2 10 13 0 11 7 25 15
32 8 7 15 19 15 28 0 24 31 52 57 52 12 0 23 -4 23 -9z m183 -21 c3 -13 0 -20
-8 -20 -17 0 -28 17 -20 30 10 16 22 12 28 -10z m-778 -21 c0 -27 26 -89 37
-89 5 0 8 -5 8 -11 0 -13 -71 -5 -102 12 -27 14 -19 72 13 99 30 24 44 20 44
-11z m450 5 c2 -10 6 -27 10 -36 12 -30 -9 -20 -28 13 -17 31 -15 53 6 46 6
-2 11 -12 12 -23z m805 -33 c0 -11 3 -26 6 -35 4 -10 -5 -20 -26 -31 -29 -15
-34 -15 -55 -1 -14 9 -31 16 -40 16 -20 0 -19 24 1 41 14 11 19 10 39 -13 24
-28 35 -27 35 2 0 17 18 40 32 40 4 0 8 -9 8 -19z m-1440 -30 c7 -13 16 -17
31 -14 23 6 49 -18 49 -44 0 -10 -5 -10 -25 -1 -14 6 -25 15 -25 20 0 4 -9 8
-20 8 -10 0 -24 8 -30 18 -11 16 -11 16 -6 0 4 -13 0 -18 -14 -18 -24 0 -25 8
-3 32 21 23 30 23 43 -1z m-30 -60 c30 -6 60 -18 66 -26 13 -18 34 -20 34 -4
0 19 100 1 145 -25 22 -13 65 -31 95 -39 58 -17 102 -54 115 -94 4 -17 2 -23
-8 -23 -18 0 -41 26 -33 38 5 9 -14 31 -43 47 -11 6 -13 4 -7 -10 7 -18 6 -18
-14 0 -28 25 -35 13 -15 -25 19 -38 11 -51 -27 -43 -31 6 -36 24 -13 43 18 15
11 28 -22 41 -30 11 -53 -3 -53 -32 0 -11 -5 -19 -11 -19 -7 0 -9 16 -4 50 4
28 4 50 0 50 -28 0 -95 -25 -95 -36 0 -20 -18 -26 -42 -13 -33 17 -40 32 -21
46 22 17 0 43 -36 43 -14 0 -34 7 -45 15 -10 7 -42 17 -72 21 -30 3 -54 10
-54 13 0 8 65 0 160 -18z m1099 -26 c-8 -7 -26 -17 -41 -20 -24 -6 -26 -4 -21
15 5 17 11 20 34 15 20 -5 29 -3 29 6 0 7 3 9 7 5 4 -3 0 -13 -8 -21z m36 -5
c3 -5 1 -10 -4 -10 -6 0 -11 5 -11 10 0 6 2 10 4 10 3 0 8 -4 11 -10z m15 -29
c0 -12 -29 -41 -40 -41 -5 0 1 11 13 24 26 28 27 29 27 17z m-705 -22 c17 -12
21 -18 10 -14 -11 4 -28 10 -37 12 -10 3 -18 9 -18 14 0 14 13 11 45 -12z
m594 5 c2 -2 1 -10 -3 -19 -5 -13 -9 -13 -26 -3 -28 18 -26 41 3 32 12 -3 24
-8 26 -10z m-62 -10 c4 -10 -1 -22 -12 -30 -10 -8 -17 -15 -14 -16 45 -28 51
-29 44 -9 -7 24 14 39 29 19 10 -13 13 -12 30 3 17 16 20 17 42 2 25 -16 34
-39 12 -30 -48 19 -48 19 -48 -3 0 -37 -23 -51 -73 -44 -33 5 -44 11 -43 23 1
12 -7 15 -32 13 -46 -3 -99 -32 -160 -87 -29 -26 -55 -45 -58 -42 -9 8 31 80
61 110 17 16 39 27 56 27 43 0 78 17 89 44 8 21 18 27 63 35 4 0 10 -6 14 -15z
m103 6 c0 -5 -5 -10 -11 -10 -5 0 -7 5 -4 10 3 6 8 10 11 10 2 0 4 -4 4 -10z
m-422 -142 c2 -45 0 -80 -3 -76 -10 10 -23 122 -18 152 9 46 19 12 21 -76z
m-434 27 c3 -8 1 -15 -4 -15 -6 0 -10 7 -10 15 0 8 2 15 4 15 2 0 6 -7 10 -15z
m1023 -25 c31 -24 45 -26 36 -4 -4 12 -1 15 13 12 39 -7 27 -36 -25 -63 -28
-14 -51 -22 -51 -18 0 5 -9 14 -21 21 -18 12 -20 11 -15 -5 3 -13 -6 -25 -33
-44 -37 -26 -38 -26 -50 -7 -9 14 -20 19 -38 15 -15 -3 -44 1 -64 9 -21 7 -41
9 -44 5 -3 -5 -22 -5 -42 0 -21 5 -53 9 -70 9 -42 0 -42 13 1 39 40 25 78 26
176 2 59 -14 75 -22 75 -36 0 -10 6 -20 12 -22 14 -5 73 54 73 72 0 13 21 35
33 35 5 0 20 -9 34 -20z m-697 -195 c-16 -49 -32 -103 -36 -120 -4 -19 -9 -24
-11 -14 -9 37 57 244 72 227 1 -1 -10 -43 -25 -93z m59 -383 c16 -36 44 -71
85 -107 45 -41 56 -55 41 -55 -35 0 -113 57 -138 102 -47 81 -55 182 -29 353
6 40 8 21 12 -95 5 -123 9 -153 29 -198z m21 173 c12 -44 33 -100 47 -125 l24
-45 -25 30 c-27 31 -60 119 -72 190 -10 62 1 39 26 -50z"/>
<path d="M2130 1551 c0 -6 4 -13 10 -16 6 -3 7 1 4 9 -7 18 -14 21 -14 7z"/>
<path d="M2160 1701 c0 -11 26 -22 34 -14 3 3 3 10 0 14 -7 12 -34 11 -34 0z"/>
<path d="M1854 1109 c-3 -5 6 -9 20 -9 14 0 27 4 30 9 3 5 -6 9 -19 9 -14 0
-28 -4 -31 -9z"/>
<path d="M790 824 c-14 -10 -27 -19 -28 -20 -2 -1 25 -31 60 -66 87 -87 342
-378 336 -384 -3 -2 -38 31 -77 75 -39 44 -125 129 -190 190 -103 96 -120 109
-135 98 -15 -11 6 -33 186 -189 112 -97 206 -175 209 -174 4 0 16 -8 28 -18
54 -49 14 7 -156 219 -102 127 -190 243 -196 258 -12 27 -13 27 -37 11z"/>
<path d="M591 691 l-23 -18 48 -28 c96 -55 200 -117 279 -167 177 -113 288
-178 292 -174 3 2 -6 10 -18 17 -13 6 -64 42 -114 78 -49 37 -100 73 -112 81
-12 8 -89 63 -171 123 -82 59 -151 107 -153 107 -2 0 -15 -9 -28 -19z"/>
<path d="M1865 656 c-27 -18 -90 -57 -140 -86 -83 -50 -267 -171 -307 -203
-37 -30 -16 -25 35 7 67 43 281 149 425 211 140 61 152 85 20 39 -21 -7 -38
-10 -38 -7 0 3 17 21 38 39 48 43 31 43 -33 0z"/>
<path d="M518 567 c-28 -11 -38 -27 -16 -27 28 0 513 -186 578 -222 45 -25 21
-19 -120 30 -126 44 -336 107 -392 117 -26 5 -49 1 -87 -16 -28 -12 -50 -23
-48 -26 2 -2 47 -10 99 -18 111 -16 412 -77 515 -103 39 -10 69 -14 66 -8 -4
6 1 6 13 2 28 -12 60 -20 54 -14 -18 21 -598 298 -619 297 -9 -1 -28 -6 -43
-12z"/>
<path d="M2005 565 c-16 -8 -111 -42 -210 -75 -176 -60 -306 -115 -393 -166
-54 -32 -50 -41 6 -14 87 42 213 83 387 126 99 24 222 56 273 70 l92 27 -57
23 c-67 27 -59 27 -98 9z"/>
<path d="M2057 424 c-4 -4 -71 -11 -149 -15 -155 -9 -250 -29 -375 -79 -102
-41 -130 -67 -37 -35 139 48 216 58 479 65 138 3 243 7 234 8 -9 1 -41 16 -72
32 -59 31 -69 34 -80 24z"/>
<path d="M442 346 c-50 -29 -41 -32 86 -33 105 -1 293 -17 447 -39 17 -2 57
-6 90 -9 l60 -5 -60 15 c-100 24 -289 55 -397 65 -57 5 -125 12 -153 14 -31 3
-59 0 -73 -8z"/>
<path d="M1660 294 c-139 -28 -230 -50 -238 -60 -4 -3 13 -4 38 0 227 32 314
32 615 0 172 -19 214 -14 151 16 -21 11 -44 24 -51 30 -14 12 -466 24 -515 14z"/>
<path d="M413 254 c-48 -11 -20 -19 50 -16 39 2 205 -1 366 -7 162 -6 296 -9
298 -7 20 19 -637 47 -714 30z"/>
<path d="M1433 203 c-71 -9 -28 -23 75 -25 l107 -2 -105 -5 -105 -6 165 -13
c91 -7 260 -26 375 -43 239 -33 345 -38 345 -14 0 8 -5 15 -10 15 -6 0 -8 11
-4 25 5 20 1 26 -20 35 -53 20 -714 46 -823 33z m320 -40 c-7 -2 -21 -2 -30 0
-10 3 -4 5 12 5 17 0 24 -2 18 -5z"/>
<path d="M555 194 c-22 -2 -78 -7 -123 -10 -82 -6 -84 -7 -78 -29 3 -13 2 -27
-4 -30 -5 -3 -10 -15 -10 -26 0 -16 7 -19 55 -19 30 0 97 7 148 15 50 8 160
21 242 30 183 19 389 45 394 51 2 2 2 6 0 8 -6 5 -575 14 -624 10z"/>
<path d="M1430 106 l0 -26 88 0 c49 0 125 -3 168 -6 134 -11 71 11 -81 29 -77
8 -148 19 -157 22 -14 6 -18 2 -18 -19z"/>
<path d="M992 95 c-57 -7 -106 -16 -110 -20 -4 -4 38 -5 93 -1 55 3 117 6 138
6 26 0 37 4 37 15 0 17 -11 17 -158 0z"/>
</g>
</svg>
